<?xml version="1.0" encoding="UTF-8" standalone="no"?>
<svg
   xmlns:svg="http://www.w3.org/2000/svg"
   xmlns="http://www.w3.org/2000/svg"
   xmlns:sodipodi="http://sodipodi.sourceforge.net/DTD/sodipodi-0.dtd"
   xmlns:inkscape="http://www.inkscape.org/namespaces/inkscape"
   width="64.345978"
   height="64.345032"
   viewBox="0 0 17.0249 17.02465"
   version="1.1"
   id="svg34"
   sodipodi:docname="favicon.svg"
   inkscape:version="1.1-dev (2e60fb975d, 2020-06-03)">
  <defs
     id="defs38" />
  <sodipodi:namedview
     pagecolor="#ffffff"
     bordercolor="#666666"
     borderopacity="1"
     objecttolerance="10"
     gridtolerance="10"
     guidetolerance="10"
     inkscape:pageopacity="0"
     inkscape:pageshadow="2"
     inkscape:window-width="1600"
     inkscape:window-height="845"
     id="namedview36"
     showgrid="false"
     inkscape:zoom="3.07"
     inkscape:cx="28.817798"
     inkscape:cy="53.430743"
     inkscape:window-x="0"
     inkscape:window-y="27"
     inkscape:window-maximized="1"
     inkscape:current-layer="svg34" />
  <path
     id="circle2"
     style="fill:#cae8dc;fill-rule:evenodd;stroke-width:0.494965"
     d="m 14.535451,14.52743 c -0.04577,-0.001 -0.03337,-0.002 -0.08003,-0.003 -0.722213,-0.0144 -1.547113,-0.0203 -2.39684,-0.006 -0.849727,0.0143 -1.724451,0.049 -2.54596,0.11594 -0.410755,0.0333 -0.914365,0.10414 -1.484627,0.20381 -0.570261,0.0997 -1.207,0.2283 -1.883675,0.37681 -0.674122,0.14795 -1.388232,0.31588 -2.115374,0.49494 a 8.5124129,8.5124129 0 0 0 4.483595,1.31472 8.5124129,8.5124129 0 0 0 6.02291,-2.49728 z"
     inkscape:export-xdpi="72"
     inkscape:export-ydpi="72" />
  <path
     id="path912"
     style="fill:#323232;fill-opacity:1;fill-rule:evenodd;stroke-width:0.494965"
     d="m 16.48931,11.45591 c -0.620476,0.13796 -1.883991,0.41566 -4.400467,1.00646 -1.524807,0.35799 -3.241291,0.76903 -4.959754,1.19678 -1.489049,0.37065 -2.939458,0.75168 -4.308225,1.12368 a 8.5124129,8.5124129 0 0 0 1.208082,0.92716 c 0.727142,-0.17906 1.441252,-0.34698 2.115374,-0.49493 0.676675,-0.14852 1.313414,-0.27714 1.883675,-0.37681 0.570262,-0.0997 1.073872,-0.1705 1.484627,-0.20381 0.821509,-0.067 1.696233,-0.10161 2.54596,-0.11594 0.849727,-0.0143 1.674627,-0.008 2.39684,0.006 0.04665,10e-4 0.03425,0.002 0.08003,0.003 a 8.5124129,8.5124129 0 0 0 1.953859,-3.07152 z"
     inkscape:export-xdpi="72"
     inkscape:export-ydpi="72" />
  <path
     id="path910"
     style="fill:#cae8dc;fill-rule:evenodd;stroke-width:0.494965"
     d="M 8.512541,0 A 8.5124129,8.5124129 0 0 0 0,8.51236 8.5124129,8.5124129 0 0 0 2.820864,14.78283 c 1.368767,-0.372 2.819176,-0.75303 4.308225,-1.12368 1.718463,-0.42775 3.434947,-0.83879 4.959754,-1.19678 2.516476,-0.5908 3.779991,-0.8685 4.400467,-1.00646 A 8.5124129,8.5124129 0 0 0 17.0249,8.51236 8.5124129,8.5124129 0 0 0 8.512541,0 Z"
     inkscape:export-xdpi="72"
     inkscape:export-ydpi="72" />
  <path
     id="path8"
     fill-rule="evenodd"
     fill="#9ecb9a"
     d="m 4.10501,11.80028 c 0.301233,0.90224 2.863157,3.00219 5.942097,2.31137 3.077495,-0.68935 3.732095,-4.19552 3.475758,-4.9964 C 13.26508,8.31438 12.202079,7.07325 7.979031,8.18259 3.75454,9.2905 3.895016,11.16595 4.10501,11.80028 Z"
     style="stroke-width:1.44824"
     inkscape:export-xdpi="72"
     inkscape:export-ydpi="72" />
  <ellipse
     id="ellipse10"
     fill-rule="evenodd"
     fill-opacity="0.867"
     fill="#024a30"
     opacity="0.873"
     ry="1.0108662"
     rx="3.6973376"
     cy="11.076336"
     cx="5.9085708"
     transform="rotate(-14.504)"
     style="fill:#323232;fill-opacity:1;stroke-width:1.44824"
     inkscape:export-xdpi="72"
     inkscape:export-ydpi="72" />
  <path
     id="path16"
     stroke-linecap="round"
     stroke-width="0.216851"
     stroke="#323232"
     fill="none"
     d="M 8.410605,4.82414 C 8.454045,4.44424 8.602272,3.82654 9.099361,3.88658 9.392847,3.97758 9.28542,4.51354 8.975413,4.49395"
     style="stroke:#323232;stroke-opacity:1"
     inkscape:export-xdpi="72"
     inkscape:export-ydpi="72" />
  <path
     id="path18"
     fill-rule="evenodd"
     fill="#476c72"
     d="m 5.479384,5.22241 1.177413,-0.029 c 0,0 1.177414,-1.17596 2.247655,-0.1593 1.070247,1.01666 1.177415,3.20928 1.390305,3.42362 0.214339,0.21433 1.284581,0.59232 1.284581,0.59232 0,0 -2.437376,1.77699 -4.54745,1.22665 C 5.159326,9.68874 6.283151,6.21009 6.283151,6.21009 Z"
     style="stroke-width:1.44824"
     inkscape:export-xdpi="72"
     inkscape:export-ydpi="72" />
  <path
     id="path20"
     style="fill:#fa6547;fill-opacity:1;stroke-width:1.44824"
     d="m 8.776308,7.26588 c -0.08671,-0.003 -0.168208,0.0165 -0.24116,0.0652 -0.582191,0.38813 -0.699466,2.25487 1.711841,1.0876 0,0 -0.863751,-1.13102 -1.470681,-1.15279 z"
     inkscape:export-xdpi="72"
     inkscape:export-ydpi="72" />
  <ellipse
     id="ellipse26"
     fill-rule="evenodd"
     fill="#e1e1e1"
     cx="-8.9771261"
     cy="3.4372358"
     rx="0.41709089"
     ry="0.59667176"
     transform="matrix(-0.95408885,-0.29952374,-0.29952374,0.95408885,0,0)"
     style="stroke-width:1.44824"
     inkscape:export-xdpi="72"
     inkscape:export-ydpi="72" />
  <ellipse
     id="ellipse28"
     fill-rule="evenodd"
     fill="#323232"
     transform="matrix(-0.95408885,-0.29952374,-0.29952374,0.95408885,0,0)"
     ry="0.38522977"
     rx="0.26937124"
     cy="3.4705458"
     cx="-8.8149252"
     style="stroke-width:1.44824"
     inkscape:export-xdpi="72"
     inkscape:export-ydpi="72" />
  <path
     style="fill:#fa6547;fill-opacity:1;stroke-width:1.44824"
     d="M 5.479384,5.22241 6.656797,5.19341 6.283151,6.21007 Z"
     id="path897"
     inkscape:export-xdpi="72"
     inkscape:export-ydpi="72" />
</svg>
