<?xml version="1.0" encoding="UTF-8" standalone="no"?>
<svg
   xmlns:svg="http://www.w3.org/2000/svg"
   xmlns="http://www.w3.org/2000/svg"
   xmlns:sodipodi="http://sodipodi.sourceforge.net/DTD/sodipodi-0.dtd"
   xmlns:inkscape="http://www.inkscape.org/namespaces/inkscape"
   inkscape:version="1.1-dev (2e60fb975d, 2020-06-03)"
   sodipodi:docname="favicon2.svg"
   id="svg34"
   version="1.1"
   viewBox="0 0 17.024827 17.024828"
   height="64.345703"
   width="64.345703">
  <defs
     id="defs38" />
  <sodipodi:namedview
     fit-margin-bottom="0"
     fit-margin-right="0"
     fit-margin-left="0"
     fit-margin-top="0"
     inkscape:current-layer="svg34"
     inkscape:window-maximized="1"
     inkscape:window-y="27"
     inkscape:window-x="0"
     inkscape:cy="60.222425"
     inkscape:cx="115.82995"
     inkscape:zoom="3.07"
     showgrid="false"
     id="namedview36"
     inkscape:window-height="845"
     inkscape:window-width="1600"
     inkscape:pageshadow="2"
     inkscape:pageopacity="0"
     guidetolerance="10"
     gridtolerance="10"
     objecttolerance="10"
     borderopacity="1"
     bordercolor="#666666"
     pagecolor="#ffffff" />
  <path
     transform="scale(0.26458375)"
     d="M 63.40625 37.341797 C 63.356624 37.03156 63.361335 36.58957 63.285156 36.351562 C 63.082247 35.721179 62.800478 35.04793 62.410156 34.365234 C 62.019835 33.682539 61.522376 32.990581 60.886719 32.324219 C 60.251062 31.657856 59.477979 31.016931 58.539062 30.435547 C 57.600146 29.854163 56.495411 29.33401 55.195312 28.90625 C 53.895214 28.47849 52.398891 28.142991 50.679688 27.9375 C 48.960484 27.732009 47.016545 27.654811 44.820312 27.740234 C 42.62408 27.825657 40.176497 28.074549 37.445312 28.519531 C 34.714128 28.964514 31.701012 29.607281 28.376953 30.480469 C 25.051758 31.35253 22.155801 32.29848 19.636719 33.296875 C 17.117636 34.29527 14.974877 35.344602 13.15625 36.419922 C 11.337623 37.495241 9.8429703 38.596383 8.6191406 39.699219 C 7.3953109 40.802055 6.4417213 41.907337 5.7070312 42.988281 C 4.9723412 44.069226 4.4566769 45.127074 4.1054688 46.136719 C 4.0337361 46.342934 4.0388579 46.518703 3.9804688 46.720703 A 32.172848 32.172848 0 0 0 10.662109 55.871094 A 32.172848 32.172848 0 0 0 15.226562 59.376953 A 32.172848 32.172848 0 0 0 32.173828 64.345703 A 32.172848 32.172848 0 0 0 54.9375 54.90625 A 32.172848 32.172848 0 0 0 62.322266 43.298828 A 32.172848 32.172848 0 0 0 63.40625 37.341797 z "
     style="fill:#9ecb9a;fill-rule:evenodd;stroke-width:1.87073;fill-opacity:1"
     id="circle2" />
  <path
     transform="scale(0.26458375)"
     d="M 32.173828 0 A 32.172848 32.172848 0 0 0 0 32.171875 A 32.172848 32.172848 0 0 0 3.9804688 46.720703 C 4.0388579 46.518703 4.0337361 46.342934 4.1054688 46.136719 C 4.4566769 45.127074 4.9723412 44.069226 5.7070312 42.988281 C 6.4417213 41.907337 7.3953109 40.802055 8.6191406 39.699219 C 9.8429703 38.596383 11.337623 37.495241 13.15625 36.419922 C 14.974877 35.344602 17.117636 34.29527 19.636719 33.296875 C 22.155801 32.29848 25.051758 31.35253 28.376953 30.480469 C 31.701012 29.607281 34.714128 28.964514 37.445312 28.519531 C 40.176497 28.074549 42.62408 27.825657 44.820312 27.740234 C 47.016545 27.654811 48.960484 27.732009 50.679688 27.9375 C 52.398891 28.142991 53.895214 28.47849 55.195312 28.90625 C 56.495411 29.33401 57.600146 29.854163 58.539062 30.435547 C 59.477979 31.016931 60.251062 31.657856 60.886719 32.324219 C 61.522376 32.990581 62.019835 33.682539 62.410156 34.365234 C 62.800478 35.04793 63.082247 35.721179 63.285156 36.351562 C 63.361335 36.58957 63.356624 37.03156 63.40625 37.341797 A 32.172848 32.172848 0 0 0 64.345703 32.171875 A 32.172848 32.172848 0 0 0 32.173828 0 z "
     style="fill:#cae8dc;fill-rule:evenodd;stroke-width:1.87073"
     id="path925" />
  <ellipse
     inkscape:export-ydpi="72"
     inkscape:export-xdpi="72"
     style="fill:#323232;fill-opacity:1;stroke-width:2.41288"
     transform="rotate(-14.504)"
     cx="5.6373363"
     cy="11.614038"
     rx="6.1600609"
     ry="1.6841841"
     opacity="0.873"
     fill="#024a30"
     fill-opacity="0.867"
     fill-rule="evenodd"
     id="ellipse10" />
  <path
     inkscape:export-ydpi="72"
     inkscape:export-xdpi="72"
     style="stroke:#323232;stroke-opacity:1"
     d="M 8.2269285,2.4689553 C 8.299303,1.8360115 8.5462611,0.80687373 9.3744512,0.90690518 9.8634224,1.0585185 9.6844404,1.9514708 9.1679439,1.9188323"
     fill="none"
     stroke="#323232"
     stroke-width="0.361291"
     stroke-linecap="round"
     id="path16" />
  <path
     inkscape:export-ydpi="72"
     inkscape:export-xdpi="72"
     style="stroke-width:2.41288"
     d="m 3.3432792,3.1325051 1.9616645,-0.048316 c 0,0 1.9616661,-1.9592437 3.7447735,-0.2654066 1.7831178,1.6938371 1.9616678,5.3469179 2.3163598,5.7040255 0.357106,0.357091 2.140215,0.9868526 2.140215,0.9868526 0,0 -4.0608641,2.9606074 -7.5764166,2.0436974 C 2.8100369,10.573769 4.6824195,4.7780592 4.6824195,4.7780592 Z"
     fill="#476c72"
     fill-rule="evenodd"
     id="path18" />
  <path
     inkscape:export-ydpi="72"
     inkscape:export-xdpi="72"
     d="M 8.836219,6.53709 C 8.6917532,6.53209 8.555971,6.56458 8.4344271,6.6457184 7.4644502,7.2923741 7.2690606,10.402513 11.286491,8.4577473 c 0,0 -1.439078,-1.8843701 -2.450272,-1.9206406 z"
     style="fill:#fa6547;fill-opacity:1;stroke-width:2.41288"
     id="path20" />
  <ellipse
     inkscape:export-ydpi="72"
     inkscape:export-xdpi="72"
     style="stroke-width:2.41288"
     transform="matrix(-0.95408885,-0.29952375,-0.29952375,0.95408885,0,0)"
     ry="0.99410295"
     rx="0.69490689"
     cy="2.1469042"
     cx="-7.7685485"
     fill="#e1e1e1"
     fill-rule="evenodd"
     id="ellipse26" />
  <ellipse
     inkscape:export-ydpi="72"
     inkscape:export-xdpi="72"
     style="stroke-width:2.41288"
     cx="-7.4983087"
     cy="2.2024012"
     rx="0.44879407"
     ry="0.64182365"
     transform="matrix(-0.95408885,-0.29952375,-0.29952375,0.95408885,0,0)"
     fill="#323232"
     fill-rule="evenodd"
     id="ellipse28" />
  <path
     inkscape:export-ydpi="72"
     inkscape:export-xdpi="72"
     id="path897"
     d="M 3.3432792,3.1325051 5.3049437,3.0841888 4.6824195,4.7780259 Z"
     style="fill:#fa6547;fill-opacity:1;stroke-width:2.41288" />
  <path
     id="path858"
     style="fill:#cae8dc;fill-rule:evenodd;stroke-width:0.494965"
     d="m 26.780162,0 a 8.5124128,8.5124128 0 0 0 -8.512672,8.5121553 8.5124128,8.5124128 0 0 0 2.821021,6.2704287 8.5124128,8.5124128 0 0 0 1.20768,0.927593 8.5124128,8.5124128 0 0 0 4.483971,1.31465 8.5124128,8.5124128 0 0 0 6.022898,-2.497525 8.5124128,8.5124128 0 0 0 1.953889,-3.071136 A 8.5124128,8.5124128 0 0 0 35.292317,8.5121553 8.5124128,8.5124128 0 0 0 26.780162,0 Z" />
  <text
     transform="scale(0.97675566,1.0237975)"
     id="text862"
     y="11.846659"
     x="20.212627"
     style="font-style:normal;font-weight:normal;font-size:9.6113px;line-height:1.25;font-family:sans-serif;letter-spacing:0px;word-spacing:0px;fill:#000000;fill-opacity:1;stroke:none;stroke-width:0.240282"
     xml:space="preserve"><tspan
       y="11.846659"
       x="20.212627"
       style="font-style:normal;font-variant:normal;font-weight:normal;font-stretch:normal;font-family:Manjari;-inkscape-font-specification:Manjari;fill:#ffffff;fill-opacity:1;stroke-width:0.240282"
       id="tspan860"
       sodipodi:role="line">NW</tspan></text>
  <path
     id="path920"
     fill-rule="evenodd"
     fill="#9ecb9a"
     d="m 1.0534619,30.573802 c 0.5018783,1.503204 4.7702492,5.001889 9.9000101,3.850928 5.127354,-1.148513 6.21797,-6.990073 5.790892,-8.324403 -0.429491,-1.334313 -2.200536,-3.402136 -9.2364724,-1.553886 -7.03834085,1.845867 -6.80429656,4.970516 -6.4544297,6.027361 z"
     style="stroke-width:2.41288"
     inkscape:export-xdpi="72"
     inkscape:export-ydpi="72" />
</svg>
