<?xml version="1.0" encoding="UTF-8" standalone="no"?>
<svg
   xmlns:svg="http://www.w3.org/2000/svg"
   xmlns="http://www.w3.org/2000/svg"
   xmlns:sodipodi="http://sodipodi.sourceforge.net/DTD/sodipodi-0.dtd"
   xmlns:inkscape="http://www.inkscape.org/namespaces/inkscape"
   width="64.345703"
   height="64.345703"
   viewBox="0 0 17.024827 17.024828"
   version="1.1"
   id="svg34"
   sodipodi:docname="favicon3.svg"
   inkscape:version="1.1-dev (2e60fb975d, 2020-06-03)">
  <defs
     id="defs38" />
  <sodipodi:namedview
     pagecolor="#ffffff"
     bordercolor="#666666"
     borderopacity="1"
     objecttolerance="10"
     gridtolerance="10"
     guidetolerance="10"
     inkscape:pageopacity="0"
     inkscape:pageshadow="2"
     inkscape:window-width="1600"
     inkscape:window-height="845"
     id="namedview36"
     showgrid="false"
     inkscape:zoom="3.07"
     inkscape:cx="13.283622"
     inkscape:cy="56.499763"
     inkscape:window-x="0"
     inkscape:window-y="27"
     inkscape:window-maximized="1"
     inkscape:current-layer="svg34"
     fit-margin-top="0"
     fit-margin-left="0"
     fit-margin-right="0"
     fit-margin-bottom="0" />
  <path
     id="circle2"
     style="fill:#9ecb9a;fill-opacity:1;fill-rule:evenodd;stroke-width:0.494965"
     d="M -1.4912266,9.8800327 C -1.5043579,9.797949 -1.5031117,9.6810056 -1.5232661,9.6180326 -1.5769525,9.4512435 -1.651504,9.2731128 -1.7547769,9.0924825 -1.8580495,8.9118525 -1.989669,8.7287716 -2.1578536,8.5524631 -2.3260381,8.3761543 -2.5305833,8.2065759 -2.7790055,8.0527512 -3.0274274,7.8989264 -3.3197223,7.7613024 -3.6637074,7.648124 -4.0076922,7.5349457 -4.4035949,7.4461781 -4.8584681,7.3918085 c -0.4548734,-0.05437 -0.9692081,-0.074795 -1.5502957,-0.052193 -0.5810873,0.022601 -1.228678,0.088454 -1.9513051,0.2061894 -0.7226269,0.1177352 -1.5198485,0.2878009 -2.3993401,0.5188323 -0.879793,0.2307332 -1.646016,0.4810162 -2.312524,0.7451753 -0.666509,0.264159 -1.233448,0.5417952 -1.714627,0.8263074 -0.481179,0.284512 -0.87664,0.5758561 -1.200445,0.8676481 -0.323806,0.291793 -0.57611,0.584232 -0.770497,0.870233 -0.194387,0.286 -0.330824,0.565889 -0.423748,0.833025 -0.01898,0.05456 -0.01762,0.101067 -0.03307,0.154513 a 8.5124128,8.5124128 0 0 0 1.767854,2.421045 8.5124128,8.5124128 0 0 0 1.20768,0.927593 8.5124128,8.5124128 0 0 0 4.4839711,1.31465 8.5124128,8.5124128 0 0 0 6.0228977,-2.497525 8.5124128,8.5124128 0 0 0 1.953889,-3.071136 8.5124128,8.5124128 0 0 0 0.2868046,-1.5761329 z" />
  <path
     id="path925"
     style="fill:#cae8dc;fill-rule:evenodd;stroke-width:0.494965"
     d="m -9.7548179,0 a 8.5124128,8.5124128 0 0 0 -8.5126721,8.5121553 8.5124128,8.5124128 0 0 0 1.053167,3.8493837 c 0.01545,-0.05345 0.01409,-0.09995 0.03307,-0.154513 0.09292,-0.267136 0.229361,-0.547025 0.423748,-0.833025 0.194387,-0.286001 0.446691,-0.57844 0.770497,-0.870233 0.323805,-0.291792 0.719266,-0.5831365 1.200445,-0.8676485 0.481179,-0.2845122 1.048118,-0.5621484 1.714627,-0.8263074 0.666508,-0.2641591 1.432731,-0.5144421 2.312524,-0.7451753 0.8794916,-0.2310314 1.6767132,-0.4010971 2.3993401,-0.5188323 0.7226271,-0.117735 1.3702178,-0.1835878 1.9513051,-0.2061894 0.5810876,-0.022601 1.0954223,-0.00217 1.5502957,0.052193 0.4548732,0.05437 0.8507759,0.1431372 1.1947607,0.2563155 0.3439851,0.1131784 0.63628,0.2508024 0.8847019,0.4046272 0.2484222,0.1538247 0.4529674,0.3234031 0.6211519,0.4997119 0.1681846,0.1763085 0.2998041,0.3593894 0.4030767,0.5400194 0.1032729,0.1806303 0.1778244,0.358761 0.2315108,0.5255501 0.020156,0.062973 0.01891,0.1799164 0.03204,0.2620001 A 8.5124128,8.5124128 0 0 0 -1.2426626,8.5121553 8.5124128,8.5124128 0 0 0 -9.7548179,0 Z" />
  <ellipse
     id="ellipse10"
     fill-rule="evenodd"
     fill-opacity="0.867"
     fill="#024a30"
     opacity="0.873"
     ry="1.6841841"
     rx="6.1600609"
     cy="7.0389895"
     cx="-12.047972"
     transform="rotate(-14.504)"
     style="fill:#323232;fill-opacity:1;stroke-width:2.41288"
     inkscape:export-xdpi="72"
     inkscape:export-ydpi="72" />
  <path
     id="path16"
     stroke-linecap="round"
     stroke-width="0.361291"
     stroke="#323232"
     fill="none"
     d="M -10.040562,2.4689553 C -9.968187,1.8360115 -9.7212289,0.80687373 -8.8930388,0.90690518 -8.4040676,1.0585185 -8.5830496,1.9514708 -9.0995461,1.9188323"
     style="stroke:#323232;stroke-opacity:1"
     inkscape:export-xdpi="72"
     inkscape:export-ydpi="72" />
  <path
     id="path18"
     fill-rule="evenodd"
     fill="#476c72"
     d="m -14.924211,3.1325051 1.961665,-0.048316 c 0,0 1.961666,-1.9592437 3.7447732,-0.2654066 1.7831178,1.6938371 1.9616678,5.3469179 2.3163598,5.7040255 0.357106,0.357091 2.140215,0.9868526 2.140215,0.9868526 0,0 -4.0608641,2.9606074 -7.576417,2.0436974 -3.119838,-0.979589 -1.247456,-6.7752988 -1.247456,-6.7752988 z"
     style="stroke-width:2.41288"
     inkscape:export-xdpi="72"
     inkscape:export-ydpi="72" />
  <path
     id="path20"
     style="fill:#fa6547;fill-opacity:1;stroke-width:2.41288"
     d="m -9.431271,6.53709 c -0.1444658,-0.005 -0.280248,0.02749 -0.4017919,0.1086284 -0.9699771,0.6466557 -1.1653661,3.7567946 2.8520639,1.8120289 0,0 -1.439078,-1.8843701 -2.450272,-1.9206406 z"
     inkscape:export-xdpi="72"
     inkscape:export-ydpi="72" />
  <ellipse
     id="ellipse26"
     fill-rule="evenodd"
     fill="#e1e1e1"
     cx="9.6602602"
     cy="7.6184511"
     rx="0.69490689"
     ry="0.99410295"
     transform="matrix(-0.95408884,-0.29952375,-0.29952375,0.95408884,0,0)"
     style="stroke-width:2.41288"
     inkscape:export-xdpi="72"
     inkscape:export-ydpi="72" />
  <ellipse
     id="ellipse28"
     fill-rule="evenodd"
     fill="#323232"
     transform="matrix(-0.95408884,-0.29952375,-0.29952375,0.95408884,0,0)"
     ry="0.64182365"
     rx="0.44879407"
     cy="7.6739483"
     cx="9.9305"
     style="stroke-width:2.41288"
     inkscape:export-xdpi="72"
     inkscape:export-ydpi="72" />
  <path
     style="fill:#fa6547;fill-opacity:1;stroke-width:2.41288"
     d="m -14.924211,3.1325051 1.961665,-0.048316 -0.622525,1.6938371 z"
     id="path897"
     inkscape:export-xdpi="72"
     inkscape:export-ydpi="72" />
  <path
     d="M 8.512672,0 A 8.5124128,8.5124128 0 0 0 0,8.5121553 a 8.5124128,8.5124128 0 0 0 2.821021,6.2704287 8.5124128,8.5124128 0 0 0 1.20768,0.927593 8.5124128,8.5124128 0 0 0 4.483971,1.31465 8.5124128,8.5124128 0 0 0 6.022898,-2.497525 8.5124128,8.5124128 0 0 0 1.953889,-3.071136 A 8.5124128,8.5124128 0 0 0 17.024827,8.5121553 8.5124128,8.5124128 0 0 0 8.512672,0 Z"
     style="fill:#cae8dc;fill-rule:evenodd;stroke-width:0.494965"
     id="path858" />
  <text
     xml:space="preserve"
     style="font-style:normal;font-weight:normal;font-size:9.6113px;line-height:1.25;font-family:sans-serif;letter-spacing:0px;word-spacing:0px;fill:#000000;fill-opacity:1;stroke:none;stroke-width:0.240282"
     x="1.5104169"
     y="11.846659"
     id="text862"
     transform="scale(0.97675566,1.0237975)"><tspan
       sodipodi:role="line"
       id="tspan860"
       style="font-style:normal;font-variant:normal;font-weight:normal;font-stretch:normal;font-family:Manjari;-inkscape-font-specification:Manjari;fill:#ffffff;fill-opacity:1;stroke-width:0.240282"
       x="1.5104169"
       y="11.846659">NW</tspan></text>
  <path
     inkscape:export-ydpi="72"
     inkscape:export-xdpi="72"
     style="stroke-width:2.41288"
     d="m -17.214028,30.573802 c 0.501878,1.503204 4.770249,5.001889 9.90001,3.850928 5.127354,-1.148513 6.21797,-6.990073 5.790892,-8.324403 -0.429491,-1.334313 -2.200536,-3.402136 -9.236472,-1.553886 -7.038341,1.845867 -6.804297,4.970516 -6.45443,6.027361 z"
     fill="#9ecb9a"
     fill-rule="evenodd"
     id="path920" />
</svg>
